<svg xmlns="http://www.w3.org/2000/svg" viewBox="0 0 360.209 360.209" width="512" height="512"><path d="M344.609 47.505l-31.6-31.6c-10-10-23.2-15.6-37.6-15.6-14 0-27.6 5.6-37.6 15.6l-217.6 216.8c-7.6 7.2-12 17.6-12 28.8v80h-.4l-5.2 4.8c-3.2 3.2-3.6 8-.4 11.2 1.6 1.6 3.6 2.4 6 2.4 2 0 4-.8 5.6-2l5.2-4.8c.4-.4.8-.8.8-1.2h79.2c10.8 0 20.8-4.4 28.4-12l217.2-218c20.8-20 20.8-54 0-74.4zm-240.4 288c-1.6.4-3.6.8-5.2.8h-74.8v-74.8c0-2 .4-3.6.8-5.2h39.2v28c0 6.8 5.2 12 12 12h28v39.2zm16-10.4v-32.8c0-6.8-5.2-12-12-12h-28v-28c0-6.8-5.2-12-12-12h-32.8l184.4-183.6 84 84-183.6 184.4zm213.2-214l-18.4 18.4-84-84 18.4-18.4c7.2-7.2 16.4-10.8 26-10.8 10 0 19.2 4 26 10.8l31.6 31.6c14.8 14.4 14.8 38 .4 52.4z" fill="#d1a700"/></svg>
