<svg xmlns="http://www.w3.org/2000/svg" width="512" height="512" viewBox="0 0 467.064 467.064"><g fill="#32c73c"><path d="M153.141 467.064h160.784c23.78 0 43.116-19.337 43.116-43.117V43.12c0-23.78-19.336-43.12-43.116-43.12H153.141c-23.778 0-43.117 19.339-43.117 43.12v380.828c-.001 23.78 19.339 43.116 43.117 43.116zM121.873 43.12c0-17.245 14.022-31.268 31.268-31.268h160.784c17.244 0 31.265 14.023 31.265 31.268v380.828c0 17.245-14.021 31.271-31.265 31.271H153.141c-17.245 0-31.268-14.025-31.268-31.271V43.12z"/><path d="M233.532 382.638c-13.81 0-25.042 11.232-25.042 25.05 0 13.812 11.232 25.045 25.042 25.045s25.042-11.232 25.042-25.045c0-13.807-11.232-25.05-25.042-25.05zm0 44.169c-10.539 0-19.118-8.572-19.118-19.119 0-10.536 8.579-19.123 19.118-19.123 10.54 0 19.116 8.576 19.116 19.123 0 10.541-8.576 19.119-19.116 19.119zM136.116 374.28H330.94a2.96 2.96 0 0 0 2.961-2.961V29.412a2.962 2.962 0 0 0-2.961-2.963H136.116a2.965 2.965 0 0 0-2.963 2.963V371.32a2.963 2.963 0 0 0 2.963 2.96zm10.865-341.905h173.098c4.356 0 7.896 3.54 7.896 7.901v320.182c0 4.356-3.539 7.896-7.896 7.896H146.981c-4.362 0-7.901-3.539-7.901-7.896V40.276a7.903 7.903 0 0 1 7.901-7.901z"/><path d="M241.056 397.191h-15.044a2.962 2.962 0 0 0-2.963 2.961v15.056a2.967 2.967 0 0 0 2.963 2.966h15.044c1.63 0 2.96-1.33 2.96-2.966v-15.056a2.964 2.964 0 0 0-2.96-2.961zm-7.524 15.057a4.56 4.56 0 0 1-4.557-4.565 4.561 4.561 0 0 1 4.557-4.57 4.562 4.562 0 0 1 4.558 4.57 4.56 4.56 0 0 1-4.558 4.565z"/></g></svg>
