<svg id="Layer_1" viewBox="0 0 512 512" xmlns="http://www.w3.org/2000/svg"><style>.st0{fill:url(#XMLID_2_)}.st1{fill:url(#XMLID_3_)}.st2{fill:url(#XMLID_4_)}</style><g id="XMLID_138_"><radialGradient cx="201.774" cy="461.359" gradientUnits="userSpaceOnUse" id="XMLID_2_" r="261.109"><stop offset="0" stop-color="#ffd776"/><stop offset=".246" stop-color="#f3a554"/><stop offset=".379" stop-color="#f15c3c"/><stop offset=".539" stop-color="#d94867"/><stop offset=".7" stop-color="#c32f87"/><stop offset=".912" stop-color="#7d63a7"/><stop offset=".985" stop-color="#5c6cb3"/></radialGradient><path class="st0" d="M378.7 247.7c-3.3-8.5-7.7-15.7-14.9-22.9-7.2-7.2-14.4-11.6-22.9-14.9-8.2-3.2-17.7-5.4-31.4-6-13.8-.6-18.2-.8-53.4-.8s-39.6.1-53.4.8c-13.8.6-23.2 2.8-31.4 6-8.5 3.3-15.7 7.7-22.9 14.9-7.2 7.2-11.6 14.4-14.9 22.9-3.2 8.2-5.4 17.7-6 31.4-.6 13.8-.8 18.2-.8 53.4s.1 39.6.8 53.4c.6 13.8 2.8 23.2 6 31.4 3.3 8.5 7.7 15.7 14.9 22.9 7.2 7.2 14.4 11.6 22.9 14.9 8.2 3.2 17.7 5.4 31.4 6 13.8.6 18.2.8 53.4.8s39.6-.1 53.4-.8c13.8-.6 23.2-2.8 31.4-6 8.5-3.3 15.7-7.7 22.9-14.9 7.2-7.2 11.6-14.4 14.9-22.9 3.2-8.2 5.4-17.7 6-31.4.6-13.8.8-18.2.8-53.4s-.1-39.6-.8-53.4c-.6-13.8-2.8-23.2-6-31.4zm-17.3 137.1c-.6 12.6-2.7 19.5-4.5 24-2.3 6-5.2 10.4-9.7 14.9-4.5 4.5-8.8 7.3-14.9 9.7-4.6 1.8-11.4 3.9-24 4.5-13.7.6-17.7.8-52.3.8s-38.7-.1-52.3-.8c-12.6-.6-19.5-2.7-24-4.5-6-2.3-10.4-5.2-14.9-9.7-4.5-4.5-7.3-8.8-9.7-14.9-1.8-4.6-3.9-11.4-4.5-24-.6-13.7-.8-17.8-.8-52.3s.1-38.7.8-52.3c.6-12.6 2.7-19.5 4.5-24 2.3-6 5.2-10.4 9.7-14.9 4.5-4.5 8.8-7.3 14.9-9.7 4.6-1.8 11.4-3.9 24-4.5 13.7-.6 17.8-.8 52.3-.8s38.7.1 52.3.8c12.6.6 19.5 2.7 24 4.5 6 2.3 10.4 5.2 14.9 9.7 4.5 4.5 7.3 8.8 9.7 14.9 1.8 4.6 3.9 11.4 4.5 24 .6 13.7.8 17.8.8 52.3s-.2 38.7-.8 52.3z" id="XMLID_142_"/><radialGradient cx="228.154" cy="398.669" gradientUnits="userSpaceOnUse" id="XMLID_3_" r="134.083"><stop offset="0" stop-color="#ffd776"/><stop offset=".246" stop-color="#f3a554"/><stop offset=".379" stop-color="#f15c3c"/><stop offset=".607" stop-color="#d94867"/><stop offset=".835" stop-color="#c32f87"/><stop offset=".958" stop-color="#7d63a7"/><stop offset="1" stop-color="#5c6cb3"/></radialGradient><path class="st1" d="M256 266c-36.7 0-66.5 29.8-66.5 66.5S219.3 399 256 399s66.5-29.8 66.5-66.5S292.7 266 256 266zm0 109.7c-23.8 0-43.2-19.3-43.2-43.2 0-23.8 19.3-43.2 43.2-43.2s43.2 19.3 43.2 43.2c0 23.8-19.4 43.2-43.2 43.2z" id="XMLID_145_"/><radialGradient cx="318.622" cy="278.83" gradientUnits="userSpaceOnUse" id="XMLID_4_" r="31.333"><stop offset="0" stop-color="#5f6db3"/><stop offset="1" stop-color="#5c6cb3"/></radialGradient><circle class="st2" cx="325.1" cy="263.4" id="XMLID_143_" r="15.5"/></g></svg>
